<svg width="40" height="29" viewBox="0 0 40 29" fill="none" xmlns="http://www.w3.org/2000/svg">
<path d="M35.1197 0H4.61538C2.06638 0 0 2.08015 0 4.64615V23.5077C0 26.0737 2.06638 28.1538 4.61538 28.1538H35.1197C37.6687 28.1538 39.7351 26.0737 39.7351 23.5077V4.64615C39.7351 2.08015 37.6687 0 35.1197 0Z" fill="white"/>
<path d="M17.622 19.1058H14.8711L16.598 9.05962H19.3337L17.622 19.1058ZM27.5558 9.30577C26.7611 9.01346 25.9358 8.875 25.0952 8.875C22.3902 8.875 20.4799 10.2442 20.4799 12.1981C20.4493 13.6442 21.84 14.4442 22.8792 14.9212C23.9338 15.4135 24.2853 15.7365 24.2853 16.1673C24.2853 16.8442 23.4294 17.1673 22.65 17.1673C21.7636 17.1981 20.8772 17.0135 20.0672 16.6288L19.7004 16.4596L19.3184 18.7058C19.9602 18.9827 21.137 19.2288 22.3749 19.2442C25.2481 19.2442 27.1278 17.9058 27.1431 15.8288C27.1431 14.675 26.4248 13.7981 24.8507 13.0904C23.8879 12.6288 23.3072 12.3212 23.3072 11.8442C23.3072 11.4288 23.8115 10.9827 24.8813 10.9827C25.7677 10.9827 26.4248 11.1673 26.9292 11.3673L27.1737 11.475L27.5405 9.30577H27.5558Z" fill="#15195A"/>
<path fill-rule="evenodd" clip-rule="evenodd" d="M32.4581 9.0625H34.5824L36.7831 19.1087H34.2309L33.91 17.601H30.395L29.7989 19.1087H26.9258L31.0063 9.90865C31.2966 9.2625 31.7857 9.0625 32.4428 9.0625H32.4581ZM32.2747 12.7394L31.1897 15.5548H33.4668L32.8402 12.6471L32.6415 11.7702L32.3511 12.5087L32.2747 12.724V12.7394Z" fill="#15195A"/>
<path d="M2.97944 9.0625H7.39615C7.99218 9.09327 8.46594 9.2625 8.63405 9.90865L9.59686 14.524L9.88724 15.9087L12.577 9.0625H15.4807L11.171 19.0933H8.26727L5.82203 10.3702C4.92035 9.87788 3.94225 9.50865 2.93359 9.27789L2.97944 9.07788V9.0625Z" fill="#15195A"/>
</svg>
