<svg width="40" height="29" viewBox="0 0 40 29" fill="none" xmlns="http://www.w3.org/2000/svg">
<path d="M35.1197 0H4.61538C2.06638 0 0 2.08015 0 4.64615V23.5077C0 26.0737 2.06638 28.1538 4.61538 28.1538H35.1197C37.6687 28.1538 39.7351 26.0737 39.7351 23.5077V4.64615C39.7351 2.08015 37.6687 0 35.1197 0Z" fill="white"/>
<path fill-rule="evenodd" clip-rule="evenodd" d="M17.7908 13.6293L17.9895 12.3831H15.5137L16.9197 3.26004C16.9197 3.26004 16.9197 3.1985 16.9655 3.18311C16.9808 3.16773 17.0114 3.15234 17.0419 3.15234H20.4958C21.642 3.15234 22.4215 3.38311 22.8494 3.86004C23.0481 4.07542 23.1398 4.32157 23.2162 4.56773C23.2773 4.84465 23.2773 5.16773 23.2162 5.56773V5.84465L23.4148 5.95234C23.583 6.04465 23.7052 6.15234 23.8122 6.24465C23.965 6.44465 24.072 6.69081 24.1178 6.98311C24.1943 7.75234 24.0262 8.53696 23.6441 9.1985C23.3079 9.78311 22.7271 10.1985 22.07 10.337C21.749 10.4293 21.367 10.4908 20.939 10.4908H20.6792C20.2819 10.4908 19.9457 10.7831 19.8845 11.1677V11.2754L19.5177 13.46V13.5523L19.4872 13.5985H17.7908V13.6293Z" fill="#28356A"/>
<path fill-rule="evenodd" clip-rule="evenodd" d="M23.5962 5.63257L23.5656 5.83257C23.1224 8.2018 21.5483 9.01719 19.5615 9.01719H18.5529C18.3236 9.01719 18.1097 9.2018 18.0638 9.43257L17.4066 13.6941C17.3761 13.848 17.5136 13.9864 17.6512 13.9864H19.4393C19.6532 13.9864 19.8519 13.8326 19.8824 13.6172V13.5249L20.234 11.3556V11.2326C20.2798 11.0172 20.4785 10.8633 20.6924 10.8633H20.937C22.6945 10.8633 24.0394 10.1556 24.4367 8.07873C24.6201 7.21719 24.5284 6.5095 24.0852 6.0018C23.9324 5.84796 23.7948 5.7095 23.5809 5.61719L23.5962 5.63257Z" fill="#298FC2"/>
<path fill-rule="evenodd" clip-rule="evenodd" d="M23.123 5.44657C22.9855 5.40042 22.8327 5.36965 22.6798 5.33888C22.3895 5.29273 22.0991 5.27734 21.7934 5.27734H19.0884C18.8744 5.27734 18.691 5.43119 18.6605 5.64657L18.0645 9.3235V9.43119C18.095 9.20042 18.2937 9.01581 18.5382 9.01581H19.5622C21.5336 9.01581 23.0925 8.20042 23.551 5.83119L23.5815 5.63119C23.4287 5.55427 23.2759 5.49273 23.1078 5.43119L23.123 5.44657Z" fill="#22284F"/>
<path fill-rule="evenodd" clip-rule="evenodd" d="M18.6601 5.64694C18.7059 5.44694 18.874 5.30847 19.0727 5.29309H21.7778C22.221 5.29309 22.6794 5.33924 23.1226 5.44693L23.2296 5.49309L23.5964 5.64694C23.7492 4.7854 23.5964 4.20078 23.1379 3.64693C22.6183 3.04693 21.7013 2.80078 20.494 2.80078H17.0554C16.8262 2.80078 16.6122 2.9854 16.5664 3.23155L15.1298 12.4162C15.0992 12.57 15.2062 12.7392 15.359 12.77C15.3743 12.77 15.4049 12.77 15.4201 12.77H17.5597L18.6754 5.66232L18.6601 5.64694ZM7.62595 16.1392H5.1043C4.93619 16.1392 4.78337 16.2623 4.7528 16.4316L3.74414 22.9546C3.74414 23.0777 3.82055 23.1854 3.94282 23.1854H5.15015C5.31826 23.1854 5.45581 23.0623 5.48637 22.8931L5.76146 21.1239C5.79203 20.9546 5.94485 20.8316 6.09768 20.8316H6.89238C8.5582 20.8316 9.50573 20.0162 9.76554 18.4162C9.8878 17.7239 9.76554 17.1546 9.4446 16.7854C9.0931 16.3392 8.45122 16.1392 7.62595 16.1392ZM7.91633 18.5085C7.7635 19.4316 7.07578 19.4316 6.41862 19.4316H6.03655L6.29636 17.7239C6.29636 17.6162 6.40334 17.5392 6.49503 17.5392H6.67842C7.12162 17.5392 7.56482 17.5392 7.77878 17.7854C7.91633 17.9546 7.96217 18.1854 7.90104 18.4931L7.91633 18.5085ZM15.2062 18.4316H13.9989C13.8919 18.4316 13.8002 18.5085 13.8002 18.6162L13.7543 18.9546L13.6626 18.8316C13.4028 18.4469 12.8221 18.3085 12.2413 18.3085C10.9117 18.3085 9.76554 19.3239 9.55158 20.7546C9.4446 21.4623 9.61271 22.1546 9.99478 22.6316C10.3768 23.0623 10.9117 23.2316 11.5231 23.2316C12.5928 23.2316 13.1889 22.5392 13.1889 22.5392L13.143 22.8777C13.1125 23.0162 13.2194 23.1239 13.3417 23.1239H14.4115C14.5949 23.1239 14.7324 22.9854 14.763 22.8316L15.4049 18.6469C15.4201 18.5392 15.3437 18.4316 15.2368 18.4162C15.2368 18.4162 15.2215 18.4162 15.2062 18.4162V18.4316ZM13.5251 20.8008C13.4334 21.4777 12.8526 21.97 12.1649 21.9546C11.8134 21.9546 11.5383 21.8469 11.3549 21.6316C11.1715 21.3854 11.0951 21.0777 11.1563 20.77C11.2632 20.0931 11.8134 19.6008 12.5164 19.6008C12.8526 19.6008 13.1277 19.7239 13.3111 19.9392C13.5098 20.1392 13.5709 20.4623 13.5098 20.8008H13.5251ZM21.5332 18.5392H20.3259C20.2036 18.5392 20.0967 18.5854 20.0355 18.6931L18.3697 21.1854L17.6667 18.8008C17.6209 18.6469 17.4833 18.5546 17.3305 18.5546H16.1384C15.9856 18.5546 15.8939 18.7085 15.9398 18.8316L17.2694 22.7854L16.0315 24.57C15.9245 24.7239 16.0315 24.9085 16.1996 24.9085H17.4069C17.5292 24.9085 17.6361 24.8469 17.6973 24.7546L21.7319 18.8777C21.8236 18.7392 21.7319 18.5546 21.5485 18.5546L21.5332 18.5392Z" fill="#28356A"/>
<path fill-rule="evenodd" clip-rule="evenodd" d="M25.5826 16.1384H23.0457C22.8776 16.1384 22.7401 16.2615 22.7095 16.4307L21.6855 22.9538C21.6855 23.0769 21.7772 23.1846 21.8995 23.1846H23.1985C23.3208 23.1846 23.4125 23.0923 23.4278 22.9846L23.7182 21.1384C23.7182 20.9692 23.8863 20.8461 24.0544 20.8461H24.8491C26.5149 20.8461 27.4624 20.0307 27.7222 18.4307C27.8445 17.7384 27.7222 17.1692 27.4013 16.8C27.0498 16.3538 26.4079 16.1538 25.5674 16.1538L25.5826 16.1384ZM25.873 18.5077C25.7202 19.4307 25.0325 19.4307 24.3753 19.4307H23.9932L24.253 17.723C24.253 17.6154 24.36 17.5384 24.4517 17.5384H24.6351C25.0783 17.5384 25.5215 17.5384 25.7355 17.7846C25.873 17.9538 25.9189 18.1846 25.8577 18.4923L25.873 18.5077ZM33.1629 18.4307H31.9555C31.8486 18.4307 31.7569 18.5077 31.7569 18.6154L31.6957 18.9538L31.6193 18.8307C31.3595 18.4461 30.7635 18.3077 30.198 18.3077C28.8684 18.3077 27.7222 19.323 27.5083 20.7538C27.386 21.4615 27.5541 22.1538 27.9515 22.6307C28.3335 23.0615 28.8531 23.2307 29.4797 23.2307C30.5495 23.2307 31.1456 22.5384 31.1456 22.5384L31.0997 22.8769C31.0691 23.0154 31.1761 23.123 31.2984 23.123H32.3682C32.5516 23.123 32.6891 22.9846 32.7197 22.8307L33.3616 18.6461C33.3768 18.5384 33.3004 18.4307 33.1934 18.4154C33.1934 18.4154 33.1782 18.4154 33.1629 18.4154V18.4307ZM31.4818 20.8C31.3901 21.4769 30.7941 21.9846 30.1063 21.9538C29.7701 21.9538 29.495 21.8461 29.2963 21.6307C29.113 21.3846 29.0518 21.0769 29.113 20.7692C29.2199 20.0923 29.7701 19.6 30.4578 19.6C30.8093 19.6 31.0844 19.723 31.2678 19.9384C31.4665 20.1846 31.5429 20.4923 31.4665 20.8H31.4818ZM34.4772 16.3077L33.4532 22.9384C33.4227 23.0615 33.5297 23.1692 33.6519 23.1692H34.6759C34.8593 23.1692 34.9968 23.0461 35.0274 22.8769L36.036 16.3538C36.0513 16.2461 35.9749 16.1384 35.8679 16.123C35.8679 16.123 35.8526 16.123 35.8374 16.123H34.6606C34.5689 16.123 34.4772 16.2 34.4619 16.3077H34.4772Z" fill="#298FC2"/>
</svg>
