<svg width="40" height="29" viewBox="0 0 40 29" fill="none" xmlns="http://www.w3.org/2000/svg">
<path d="M35.1197 0H4.61538C2.06638 0 0 2.08015 0 4.64615V23.5077C0 26.0737 2.06638 28.1538 4.61538 28.1538H35.1197C37.6687 28.1538 39.7351 26.0737 39.7351 23.5077V4.64615C39.7351 2.08015 37.6687 0 35.1197 0Z" fill="white"/>
<path d="M23.642 20.7238H16.291V7.04688H23.642V20.7238Z" fill="#FF5F00"/>
<path d="M16.766 13.8759C16.766 11.1067 18.0192 8.62975 19.9754 7.04513C18.5083 5.84513 16.6743 5.18359 14.7793 5.18359C10.0722 5.26052 6.31265 9.15283 6.37378 13.8759C6.31265 18.599 10.0722 22.4913 14.764 22.5682C16.7355 22.5682 18.5388 21.8759 19.9754 20.7221C17.9275 19.0451 16.7508 16.5374 16.766 13.8759Z" fill="#EB001B"/>
<path d="M33.5626 13.8759C33.6237 18.599 29.8641 22.4913 25.1723 22.5682C23.2773 22.5682 21.4434 21.9221 19.9609 20.7221C22.0088 19.0451 23.1856 16.5374 23.1703 13.8759C23.1703 11.1067 21.9171 8.62975 19.9609 7.04513C21.4281 5.84513 23.2773 5.18359 25.1723 5.18359C29.8794 5.26052 33.639 9.15283 33.5779 13.8759" fill="#F79E1B"/>
</svg>
