<svg width="40" height="29" viewBox="0 0 40 29" fill="none" xmlns="http://www.w3.org/2000/svg">
<path d="M35.1141 0H4.62104C2.06891 0 0 2.0827 0 4.65185V23.4963C0 26.0655 2.06891 28.1482 4.62104 28.1482H35.1141C37.6662 28.1482 39.7351 26.0655 39.7351 23.4963V4.65185C39.7351 2.0827 37.6662 0 35.1141 0Z" fill="#006FCF"/>
<path d="M6.7697 9.62891L2.94336 18.5178H7.50553L8.0942 17.0956H9.37456L9.9485 18.503H14.9816V17.4215L15.4231 18.503H18.028L18.4695 17.4067V18.503H28.9478L30.2281 17.1252L31.4054 18.503L36.7918 18.5178L32.9654 14.0882L36.7918 9.62892H31.4937L30.2575 10.9771L29.1096 9.62892H17.7189L16.7329 11.9252L15.7321 9.62892H11.17V10.666L10.6696 9.62892H6.76968L6.7697 9.62891ZM7.6527 10.8882H9.87493L12.4062 16.903V10.8882H14.8492L16.8065 15.1993L18.6167 10.903H21.0449V17.2734H19.5733L19.5585 12.266L17.3952 17.2586H16.0707L13.9073 12.266V17.2586H10.861L10.287 15.8363H7.1818L6.59312 17.2586H4.97428L7.6527 10.8882V10.8882ZM22.3988 10.8882H28.4033L30.2428 12.9622L32.156 10.8882H33.9809L31.1847 14.0882L33.9809 17.2585H32.0677L30.2281 15.14L28.315 17.2585H22.3989V10.8882H22.3988ZM8.72702 11.9696L7.69685 14.5178H9.7572L8.72702 11.9696ZM23.8852 12.2067V13.377H27.1671V14.6659H23.8852V15.94H27.5644L29.2715 14.0734L27.638 12.2067H23.8852L23.8852 12.2067Z" fill="white"/>
</svg>
